<?xml version="1.0" standalone="no"?>
<!DOCTYPE svg PUBLIC "-//W3C//DTD SVG 20010904//EN"
 "http://www.w3.org/TR/2001/REC-SVG-20010904/DTD/svg10.dtd">
<svg version="1.0" xmlns="http://www.w3.org/2000/svg"
 width="1998.000000pt" height="1998.000000pt" viewBox="0 0 1998.000000 1998.000000"
 preserveAspectRatio="xMidYMid meet">

<g transform="translate(0.000000,1998.000000) scale(0.100000,-0.100000)"
fill="#000000" stroke="none">
<path d="M525 19965 c-234 -51 -410 -209 -492 -440 l-28 -80 0 -9455 0 -9455
28 -80 c73 -205 217 -349 422 -422 l80 -28 9455 0 9455 0 80 28 c205 73 349
217 422 422 l28 80 0 9455 0 9455 -28 80 c-73 205 -217 349 -422 422 l-80 28
-9430 2 c-7787 1 -9440 -1 -9490 -12z m4534 -6068 c453 -80 788 -233 1101
-504 411 -355 659 -834 725 -1400 23 -193 22 -3815 0 -4007 -69 -588 -340
-1090 -780 -1445 -247 -199 -574 -354 -890 -420 -268 -57 -190 -54 -1547 -58
l-1258 -4 0 3931 0 3931 1278 -4 c1134 -3 1288 -6 1371 -20z m6621 -677 l0
-700 -1260 0 -1260 0 0 -915 0 -915 770 0 770 0 0 -700 0 -700 -770 0 -770 0
0 -910 0 -910 1260 0 1260 0 0 -705 0 -705 -1567 3 -1568 3 -80 23 c-342 98
-594 351 -687 691 l-23 85 0 3125 0 3125 23 85 c97 360 372 623 732 700 80 18
176 19 1628 19 l1542 1 0 -700z m2799 -887 c227 -874 541 -2084 699 -2690 157
-606 289 -1100 291 -1097 3 3 319 1211 702 2685 383 1474 698 2682 701 2684 3
3 351 4 774 3 l770 -3 -913 -3443 c-889 -3350 -915 -3446 -968 -3555 -187
-388 -419 -653 -679 -772 -138 -64 -212 -79 -386 -80 -121 0 -170 4 -225 19
-339 92 -603 348 -825 801 l-79 160 -906 3420 c-498 1881 -909 3428 -911 3438
-5 16 36 17 769 17 l773 0 413 -1587z"/>
<path d="M3820 9995 l0 -2526 498 3 497 3 78 28 c100 35 184 77 274 138 172
116 266 255 310 460 17 79 18 181 18 1899 l0 1815 -23 90 c-60 237 -193 391
-445 515 -187 92 -192 93 -734 98 l-473 4 0 -2527z"/>
</g>
</svg>
