<svg width="48.000000pt" height="48.000000pt" viewBox="0 0 48.000000 48.000000" preserveAspectRatio="xMidYMid meet">
<g transform="translate(0.000000,48.000000) scale(0.100000,-0.100000)" fill="#000000" stroke="none">
<path d="M60 250 l0 -120 65 0 c40 0 78 6 95 15 26 13 30 14 30 1 0 -11 18
-15 81 -18 45 -2 83 0 85 3 1 3 0 15 -3 27 -4 18 -13 22 -49 22 l-44 0 0 95 0
95 -35 0 c-25 0 -35 -4 -35 -15 0 -14 -3 -14 -30 0 -17 9 -55 15 -95 15 l-65
0 0 -120z m134 48 c33 -46 8 -118 -40 -118 -23 0 -24 2 -24 70 0 68 1 70 24
70 14 0 32 -10 40 -22z"/>
</g>
</svg>
